<svg xmlns="http://www.w3.org/2000/svg" viewBox="0 0 1024 1024"><defs><style>.cls-1{fill:#fff;}.cls-2{fill:#ffaa10;}.cls-3{fill:#ffe77f;}.cls-4{fill:#996300;}.cls-5{stroke:#fff;stroke-miterlimit:10;stroke-width:20px;}</style></defs><title>capie-icon</title><g id="color"><path class="cls-1" d="M473.56,964a20.13,20.13,0,0,1-5.18-.68c-4.7-1.27-9.47-2.39-14.51-3.58-12.18-2.89-24.78-5.87-37.15-11a80.75,80.75,0,0,0-32.39-6.16h-3.17c-51.59,0-95.88-20-131.66-59.3a34,34,0,0,0-14.61-9.81C182,854.61,145.28,818.17,125.82,765.18A38.59,38.59,0,0,0,115.1,749C73.49,710.9,53.7,662.54,56.26,605.22A30,30,0,0,0,53.73,592c-24.89-53.23-24.83-107.12.19-160.17a29.3,29.3,0,0,0,2.51-13.11C53.73,362,73.81,313.18,116.11,273.61a35.39,35.39,0,0,0,8.66-12.73c19.68-53.65,56.93-91,110.72-111.08A37,37,0,0,0,249,140.69C285.85,101.1,331.33,81,384.16,81c3.27,0,6.63.08,10,.23q.57,0,1.17,0A27.82,27.82,0,0,0,406.53,79c26.76-12.6,53.89-19,80.64-19,27.12,0,54.45,6.56,81.22,19.5a22.71,22.71,0,0,0,9.2,1.85c.41,0,.81,0,1.21,0,4-.22,8-.34,11.85-.34,48.28,0,90.62,17.19,125.85,51.09a56.7,56.7,0,0,1,11.32,15.77c21.58,44,40.61,83.26,58.19,119.89,1.76,3.66,7,16.54.53,28.23-11.49,20.75-23,40.82-35.19,62.08l-9.84,17.17a20,20,0,0,1-27.3,7.42l-44-25.18a20,20,0,0,1-7.43-27.28c2.78-4.87,5.51-9.72,8.23-14.53,6.59-11.7,13.41-23.78,20.53-35.5-3-5.71-5.89-11.44-8.74-17.26L565.48,466.7H919.05a20,20,0,0,1,20,20v37.13a20.31,20.31,0,0,1-.66,5.09c-.15.56-.29,1.12-.44,1.67-.37,1.47-.75,2.94-1.17,4.4-1.39,4.85-2.76,9.88-4.08,14.75-3.38,12.42-6.87,25.27-11.44,37.92-2.76,7.68-4.31,13.25-4,19,2.86,56.15-17.35,104.63-60,144.07a30.19,30.19,0,0,0-7.65,11.16C829.84,816.62,792,854.54,737,874.63a29.76,29.76,0,0,0-11.14,7.5c-36.32,40-80.77,60.26-132.13,60.26-14.91,0-27.25,2.43-40.1,7.88-11.58,4.91-23.34,7.5-34.72,10-4.65,1-9.05,2-13.34,3.1a20,20,0,0,1-5,.63ZM396.72,851.5a110.89,110.89,0,0,1,50.81,12c13.1,6.57,26.35,9.9,39.38,9.9,13.33,0,27-3.48,40.73-10.35a107.59,107.59,0,0,1,48.58-11.65c2.73,0,5.51.1,8.28.3s5.31.29,7.88.29c26.4,0,48.07-10.12,66.25-30.94a108.72,108.72,0,0,1,48.14-32.17c28.86-9.6,47.57-28.32,57.2-57.25a107.11,107.11,0,0,1,32.2-48.12c22.79-19.86,32.81-44.1,30.62-74.12a107.55,107.55,0,0,1,9-52l-51.35,0-69.76,0c-52.42,0-114.64,0-178.62-.36-14.85-.07-29.34-3.56-40.8-9.81a66.39,66.39,0,0,1-32.43-40.4c-5.34-18.82-2.56-39.21,7.82-57.41,18.26-32,37-64.43,55.07-95.78Q536.88,334.33,548,315l78.4-136.09a80,80,0,0,0-32.88-7c-2.14,0-4.32.08-6.51.24-3.2.24-6.4.35-9.51.36a110.12,110.12,0,0,1-50.72-11.95c-13.17-6.64-26.48-10-39.56-10s-26.46,3.35-39.81,10a111.66,111.66,0,0,1-50.76,12c-2.75,0-5.57-.09-8.38-.29-2.43-.16-4.85-.25-7.2-.25-25.62,0-46.67,9.69-64.37,29.63a118.15,118.15,0,0,1-51.32,34.2c-27.43,9.39-45.29,27.32-54.62,54.79-6.9,20.33-17.77,36.77-33.22,50.24-22.48,19.62-32.38,43.65-30.26,73.47a107.29,107.29,0,0,1-11.28,57c-13.77,27.08-13.85,53.52-.25,80.82A110.39,110.39,0,0,1,147.3,610.5c-2,29.14,7.73,52.74,29.75,72.16a115.52,115.52,0,0,1,33.74,50.79c9.28,27.34,26.92,45.15,53.93,54.47A122,122,0,0,1,317.33,823c17.4,19.54,38.29,29,63.86,29,2.34,0,4.74-.09,7.15-.25C391.15,851.59,394,851.5,396.72,851.5Z"/><path class="cls-1" d="M673,474.78a19.91,19.91,0,0,1-10-2.67L619,446.72a20,20,0,0,1-7.34-27.32l25.07-43.49A20,20,0,0,1,664,368.58L708,394a20,20,0,0,1,7.34,27.28l-25,43.5a20,20,0,0,1-17.35,10Z"/><path class="cls-1" d="M487.07,862a33.21,33.21,0,0,1-13.41-2.74A248.49,248.49,0,0,0,372,837.72c-1.78,0-3.55,0-5.34.06h-.58A36.34,36.34,0,0,1,341,827a246.4,246.4,0,0,0-90.29-59.85,34.84,34.84,0,0,1-19-19.31,244.69,244.69,0,0,0-59.39-89.6,37.31,37.31,0,0,1-11-26.24c.55-38.06-6.33-72.58-21-105.53a37,37,0,0,1,0-28.67c14.65-33.28,21.52-67.57,21-104.81a38.39,38.39,0,0,1,11-27,247.28,247.28,0,0,0,59.41-89.72,34.8,34.8,0,0,1,19.15-19.18,244.11,244.11,0,0,0,90.17-59.89,36.25,36.25,0,0,1,25.11-10.65h.58c1.77,0,3.53.05,5.29.05a244.22,244.22,0,0,0,101.58-21.58,32.86,32.86,0,0,1,13.46-2.83,30.59,30.59,0,0,1,9.64,1.5c17.49,5.76,34.66,11.64,52.83,17.87l16.23,5.55a20,20,0,0,1,13.32,21.89l-7.3,48.8a20,20,0,0,1-25,16.34c-5.14-1.39-10.37-2.74-15.43-4.05-12.34-3.19-25.11-6.49-37.6-10.65a22.82,22.82,0,0,0-7.1-1.43,14.24,14.24,0,0,0-5.24,1.08c-26.61,10.09-55.78,15.81-91.73,18a337,337,0,0,1-82.49,55.06,333,333,0,0,1-55.1,82.45A342.11,342.11,0,0,1,232.68,512a342.12,342.12,0,0,1,19.45,97.39,333.13,333.13,0,0,1,55.1,82.44,334.87,334.87,0,0,1,82.46,55.06c36.57,2.22,68.41,8.72,97.25,19.84,30.32-11.1,62.15-17.49,97.2-19.49a333.1,333.1,0,0,1,82.49-55.09,331.85,331.85,0,0,1,55-82.41,11.3,11.3,0,0,0,.23-1.24c.75-5.83,1.15-12,1.56-18.46.19-2.86.38-5.76.6-8.71A20,20,0,0,1,746.6,563l48.65,6.56a20,20,0,0,1,17.33,19.82q0,6.06,0,12c0,12.25.06,23.82-.22,35.65-.22,9.37-5.79,16.54-10.43,20.9a240.15,240.15,0,0,0-60.24,90.63,33.75,33.75,0,0,1-18.77,18.62c-35.47,13.62-65,33.17-90.18,59.77a36.26,36.26,0,0,1-25.12,10.85h-.56c-1.75,0-3.49,0-5.23,0-36.37,0-69.63,7-101.68,21.52A31.91,31.91,0,0,1,487.07,862Z"/><path class="cls-1" d="M384.56,445.59a69.12,69.12,0,0,1-50.2-22.06,70.45,70.45,0,0,1-19-52.56c1.22-18.32,12.52-29.48,31-30.61,1.4-.09,2.82-.13,4.22-.13A70.69,70.69,0,0,1,400.24,361a69.35,69.35,0,0,1,20.57,49.41c0,.53,0,1.05-.07,1.57l-.17,2.24c-.65,8.32-1.38,17.75-9.69,24.77-7.46,6.31-15.78,6.42-25.41,6.55Z"/><path class="cls-1" d="M350.73,683.83c-1.78,0-3.59-.07-5.37-.21-17.65-1.39-28.54-12.41-29.88-30.21a70.12,70.12,0,0,1,18.7-52.73,69,69,0,0,1,50.33-22.3l1.92,0c9.42.27,17.56.5,24.85,7,7.89,7,8.6,15.89,9.29,24.5l.15,1.94c0,.52.07,1,.07,1.56A69.53,69.53,0,0,1,400.2,663,70.39,70.39,0,0,1,350.73,683.83Z"/><path class="cls-1" d="M622.43,683.56A69.08,69.08,0,0,1,571.82,661a70,70,0,0,1-18.4-53.08c1.46-17.23,12.13-28,29.26-29.52,2-.18,4-.27,6.05-.27a70.65,70.65,0,0,1,70,70q0,.75-.06,1.5l-.11,1.54c-.67,9.34-1.3,18.17-9.15,25.28-7.47,6.78-15.91,7-25.69,7.14Z"/><path class="cls-1" d="M487,405.87c-6.83,0-13.3-2.57-19.24-7.62-17-14.49-25.8-32.83-26.16-54.52q0-.44,0-.87c.58-21.71,9.9-40.47,26.94-54.26,5.82-4.71,12.06-7.09,18.56-7.09,6.22,0,12.24,2.18,17.91,6.5a70.22,70.22,0,0,1,1.22,110.46C500,403.45,493.66,405.87,487,405.87Z"/><path class="cls-1" d="M487.19,742.63a28.77,28.77,0,0,1-16.95-5.86,70.15,70.15,0,0,1,0-112.92c5.54-4,11.08-5.89,16.95-5.89a27.69,27.69,0,0,1,17.38,6.4c17.92,14.12,27.61,33.35,28,55.6,0,.31,0,.61,0,.92-.6,22.53-10,41.13-27.83,55.27A27.86,27.86,0,0,1,487.19,742.63Z"/><path class="cls-1" d="M318.09,557.51c-22.39-.61-40.92-10-55.06-27.92-8.47-10.75-8.64-23.34-.44-34.57a70.16,70.16,0,0,1,112.83.16c8,11.17,7.8,23.7-.61,34.35-14.16,17.94-33.47,27.62-55.84,28h-.88Z"/><path class="cls-2" d="M498.22,502.22l186.11-337a397,397,0,0,0-197.27-52.12C266.74,113.07,88.14,291.68,88.14,512s178.6,398.92,398.92,398.92S886,732.32,886,512c0-1.29,0-2.57,0-3.86Z"/><path class="cls-3" d="M512.5,511.94l-10.17-25.29L631.67,260.77a292.94,292.94,0,0,0-145.94-38.69c-162.53,0-294.29,131.76-294.29,294.29S323.2,810.66,485.73,810.66,780,678.9,780,516.37Z"/><polygon class="cls-4" points="684.33 165.19 498.22 502.22 611.28 508.22 741.25 264.81 684.33 165.19"/></g><g id="圖層_1" data-name="圖層 1"><path d="M473.49,944c-16.46-4.42-33.58-7.26-49.19-13.73-13.68-5.67-26.74-7.82-41.44-7.67-47.26.47-86.9-17.84-118.64-52.75a54.16,54.16,0,0,0-22.68-15.18c-47.35-16.91-79.71-49.26-97-96.38a58.67,58.67,0,0,0-16-24.09C91,699.85,73.89,657,76.16,606.11a49.89,49.89,0,0,0-4.39-22.61c-22.39-47.89-22.39-95.34.17-143.17a49.54,49.54,0,0,0,4.39-22.59c-2.46-51.66,15.78-94.36,53.37-129.52a55.24,55.24,0,0,0,13.78-20.46c17.76-48.44,50.62-81.21,98.92-99.22a57.34,57.34,0,0,0,21.13-14.22c35.15-37.74,78.05-55.46,129.6-53.09A48,48,0,0,0,415,97.07c48.41-22.78,96.38-22.89,144.64.43a42.91,42.91,0,0,0,20.24,3.79c47.55-2.67,88.44,12.22,122.71,45.19a36.69,36.69,0,0,1,7.22,10.16q29.28,59.76,58.12,119.74c1.39,2.88,2.4,7.48,1.06,9.89-14.55,26.28-29.6,52.28-44.88,79l-44-25.19c9.73-17,18.85-33.73,28.73-50,3.91-6.44,4.42-11.59.81-18.44-8.62-16.34-16.34-33.15-25.33-51.61C632.92,309.32,582.35,397.19,530.82,486.7H919v37.13c-.49,1.88-1,3.77-1.49,5.64-4.92,17.18-9.06,34.64-15.1,51.41-3.22,8.9-5.67,17.25-5.19,26.81,2.61,51.27-16.07,93.67-53.64,128.37a50.23,50.23,0,0,0-12.89,19.07C812.83,804.6,779.34,837.83,730,855.84A49.91,49.91,0,0,0,711,868.68c-31.56,34.75-70.46,53.72-117.37,53.71a118.43,118.43,0,0,0-47.86,9.46c-14.24,6-30.1,8.25-45.24,12.15ZM653.71,171.48c-21.08-14.53-43.55-21.1-68.21-19.28-17.55,1.3-33.93-1.52-49.76-9.5-32.27-16.26-65-16.1-97.26-.08a92.91,92.91,0,0,1-48.89,9.68c-35.09-2.41-64.61,9.83-87.89,36a98.41,98.41,0,0,1-42.84,28.56c-33.17,11.36-55.8,34.06-67.08,67.28-5.58,16.45-14.32,30.16-27.43,41.6-27.2,23.73-39.63,53.87-37.07,90a86.53,86.53,0,0,1-9.16,46.49c-16.68,32.8-16.68,66-.32,98.8a91,91,0,0,1,9.47,48.09c-2.44,35.42,9.92,65.11,36.48,88.53a95.92,95.92,0,0,1,28,42.22c11.17,32.93,33.57,55.64,66.35,67a101.83,101.83,0,0,1,44.18,29.45c23.13,26,52.56,37.8,87.3,35.46a92.31,92.31,0,0,1,48.88,9.68c32.62,16.35,65.55,15.84,98-.45A87.05,87.05,0,0,1,583,871.69c36.42,2.66,66.72-10,90.66-37.44A88,88,0,0,1,713,807.9c34.91-11.61,58.26-35,69.87-69.91a87.8,87.8,0,0,1,26.36-39.36c27.45-23.91,40.09-54.23,37.44-90.65a87.16,87.16,0,0,1,9.61-47.24c3.65-7.13,6-14.9,9.38-23.35H854.1c-106,0-212,.2-318-.32-10.52-.05-22.2-2.39-31.32-7.37-24.91-13.59-31.7-44.25-16.81-70.34,25.61-44.89,51.53-89.6,77.33-134.39Z"/><path d="M654,385.9l44,25.38c-8.29,14.44-16.33,28.46-25,43.5l-44.07-25.39C637.45,414.5,645.62,400.34,654,385.9Z"/><path d="M743.86,582.84l48.64,6.56c0,16.36.18,31.76-.19,47.14,0,2.32-2.24,5-4.13,6.81-29.4,27.64-50.95,60.41-65.24,98.11a13.82,13.82,0,0,1-7.24,7c-37.34,14.34-70,35.6-97.53,64.69a16.19,16.19,0,0,1-10.79,4.6c-40.26-.76-78.76,6.64-115.52,23.25a13.87,13.87,0,0,1-10.14-.09,267.52,267.52,0,0,0-115.56-23.16,16.27,16.27,0,0,1-10.78-4.6,264.73,264.73,0,0,0-97.55-64.69,15,15,0,0,1-7.56-7.81,263.22,263.22,0,0,0-64.21-96.87,17.41,17.41,0,0,1-4.82-11.52c.57-39.67-6.56-77.65-22.75-114a17.17,17.17,0,0,1,.06-12.46,267.71,267.71,0,0,0,22.71-113.14,18.55,18.55,0,0,1,4.93-12.31,265.64,265.64,0,0,0,64.17-96.92A15,15,0,0,1,258,275.8,262.51,262.51,0,0,0,355.5,211a16.2,16.2,0,0,1,10.82-4.44c40.27.78,78.78-6.65,115.52-23.31a12.9,12.9,0,0,1,8.57-.55c22.58,7.44,45,15.23,68.87,23.36-2.12,14.13-4.54,30.36-7.3,48.8-17.76-4.81-35.12-8.77-52-14.37-9-3-16.68-3.51-25.74-.08-27.8,10.54-56.91,15-86.52,16.75a19.15,19.15,0,0,0-10.95,4.55,315.23,315.23,0,0,1-78.93,52.68,18.83,18.83,0,0,0-8.43,8.38,311.18,311.18,0,0,1-53.27,79.53,16.34,16.34,0,0,0-4,9.49,320.46,320.46,0,0,1-18.83,94.67,17.58,17.58,0,0,0,0,11.15,320.43,320.43,0,0,1,18.81,94.67,16.32,16.32,0,0,0,4.08,9.46,311.35,311.35,0,0,1,53.24,79.55,18.81,18.81,0,0,0,8.48,8.32,313,313,0,0,1,78.9,52.73,19.16,19.16,0,0,0,11,4.47c32.18,1.92,63.54,7.4,93.66,19.3a15.61,15.61,0,0,0,10.32.09c30.55-11.42,62.12-17.32,94.62-19.07a17.76,17.76,0,0,0,10.24-4.36,311.48,311.48,0,0,1,79.63-53.13,17.44,17.44,0,0,0,7.81-7.91,310.28,310.28,0,0,1,53.14-79.61c2.51-2.75,3.81-7.23,4.3-11.08C742.76,602,743.12,592.73,743.86,582.84Z"/><path d="M400.73,410.41c-1.19,14.78-.32,15-15.6,15.18-28.71.38-51.75-25-49.86-53.28.56-8.43,4-11.49,12.25-12C375.87,358.58,400.8,381.79,400.73,410.41Z"/><path d="M400.72,613.43c.12,29-25.34,52.51-53.86,50.26-8-.64-10.94-4.1-11.52-11.79-2.15-28.58,21.54-54.33,50.44-53.5C400.23,598.81,399.51,598.8,400.72,613.43Z"/><path d="M638.67,648.13c-1.11,15.13-.56,15.13-15.39,15.42-29,.56-52.43-25.39-50-53.92.64-7.46,3.51-10.62,11.11-11.3C612.89,595.78,638.61,619.12,638.67,648.13Z"/><path d="M461.47,343.39c.43-16.06,7-29.07,19.53-39.24,4.11-3.33,7.3-3.63,11.76-.23,25.77,19.63,26.21,58.68.86,78.92-4.68,3.75-8.24,4.25-13,.18C468.35,372.58,461.74,359.63,461.47,343.39Z"/><path d="M512.5,680.35c-.45,16.8-7.36,29.91-20.26,40.12-3.73,3-6.63,2.77-10.42,0-26.91-19.31-26.93-61.16-.05-80.41,3.78-2.71,6.53-3,10.31,0C505.27,650.47,512.18,663.85,512.5,680.35Z"/><path d="M318.56,537.52c-16.63-.45-29.72-7.41-39.9-20.32-2.93-3.71-2.76-6.6,0-10.39,19.62-26.9,61.11-26.87,80.43,0,2.75,3.83,2.9,6.55-.06,10.29C348.63,530.33,335.26,537.24,318.56,537.52Z"/><path class="cls-5" d="M588.12,476.78,536,396.32a27.93,27.93,0,0,1,8.26-38.62L821.13,178.52a27.91,27.91,0,0,1,38.61,8.27L967.47,353.22a27.91,27.91,0,0,1-8.27,38.61L828.48,476.44Z"/></g></svg>